<svg width="400" height="400" viewBox="0 0 400 400" fill="none" xmlns="http://www.w3.org/2000/svg">
  <!-- Forest silhouette background -->
  <g fill="#8B9A7A">
    <!-- Pine trees -->
    <path d="M200 90 L190 110 L210 110 Z"/>
    <path d="M200 95 L185 120 L215 120 Z"/>
    <path d="M200 100 L180 130 L220 130 Z"/>
    
    <!-- Left trees -->
    <path d="M160 100 L150 120 L170 120 Z"/>
    <path d="M160 105 L145 130 L175 130 Z"/>
    <path d="M160 110 L140 140 L180 140 Z"/>
    
    <path d="M120 110 L110 130 L130 130 Z"/>
    <path d="M120 115 L105 140 L135 140 Z"/>
    <path d="M120 120 L100 150 L140 150 Z"/>
    
    <!-- Right trees -->
    <path d="M240 100 L230 120 L250 120 Z"/>
    <path d="M240 105 L225 130 L255 130 Z"/>
    <path d="M240 110 L220 140 L260 140 Z"/>
    
    <path d="M280 110 L270 130 L290 130 Z"/>
    <path d="M280 115 L265 140 L295 140 Z"/>
    <path d="M280 120 L260 150 L300 150 Z"/>
    
    <!-- Additional smaller trees for density -->
    <path d="M90 120 L85 135 L95 135 Z"/>
    <path d="M90 125 L80 145 L100 145 Z"/>
    
    <path d="M310 120 L305 135 L315 135 Z"/>
    <path d="M310 125 L300 145 L320 145 Z"/>
  </g>
  
  <!-- Barn structure -->
  <g>
    <!-- Barn base -->
    <rect x="140" y="150" width="120" height="100" fill="#E8B4B4" stroke="#D4A574" stroke-width="3"/>
    
    <!-- Barn roof -->
    <path d="M130 150 L200 120 L270 150 Z" fill="#E8B4B4" stroke="#D4A574" stroke-width="3"/>
    
    <!-- Barn door frame -->
    <rect x="155" y="170" width="90" height="80" fill="#F5F5DC" stroke="#8B9A7A" stroke-width="2"/>
    
    <!-- Sign -->
    <rect x="175" y="130" width="50" height="15" fill="#F5F5DC" stroke="#8B9A7A" stroke-width="1"/>
    <text x="200" y="142" text-anchor="middle" font-family="serif" font-size="8" fill="#8B9A7A">PREMIUM</text>
  </g>
  
  <!-- Central botanical circle -->
  <circle cx="200" cy="210" r="35" fill="#F5F5DC" stroke="#8B9A7A" stroke-width="2"/>
  
  <!-- Botanical elements inside circle -->
  <g stroke="#8B9A7A" stroke-width="1.5" fill="none">
    <!-- Wheat/grain stalks -->
    <path d="M185 195 Q190 200 185 205 Q190 210 185 215 Q190 220 185 225"/>
    <path d="M215 195 Q210 200 215 205 Q210 210 215 215 Q210 220 215 225"/>
    
    <!-- Central sun/flower -->
    <circle cx="200" cy="210" r="8" fill="#D4A574"/>
    <g stroke="#D4A574" stroke-width="1">
      <line x1="192" y1="202" x2="208" y2="218"/>
      <line x1="208" y1="202" x2="192" y2="218"/>
      <line x1="200" y1="194" x2="200" y2="226"/>
      <line x1="184" y1="210" x2="216" y2="210"/>
    </g>
    
    <!-- Decorative leaves -->
    <path d="M180 200 Q175 205 180 210"/>
    <path d="M220 200 Q225 205 220 210"/>
    <path d="M180 220 Q175 215 180 210"/>
    <path d="M220 220 Q225 215 220 210"/>
  </g>
  
  <!-- Company name -->
  <g font-family="serif" font-weight="bold" fill="#8B9A7A">
    <text x="200" y="320" text-anchor="middle" font-size="32">SUNRISE</text>
    <text x="200" y="355" text-anchor="middle" font-size="32">SCENTS</text>
  </g>
</svg>
